HIERARCHY
ROOT Hips
{
	OFFSET 0.000000 0.000000 0.000000
	CHANNELS 6 Xposition Yposition Zposition Zrotation Yrotation Xrotation 
	JOINT LHipJoint
	{
		OFFSET 0.000000 0.000000 0.000000
		CHANNELS 3 Zrotation Yrotation Xrotation
		JOINT LeftUpLeg
		{
			OFFSET 1.363060 -1.794630 0.839290
			CHANNELS 3 Zrotation Yrotation Xrotation
			JOINT LeftLeg
			{
				OFFSET 2.448110 -6.726130 0.000000
				CHANNELS 3 Zrotation Yrotation Xrotation
				JOINT LeftFoot
				{
					OFFSET 2.562200 -7.039590 0.000000
					CHANNELS 3 Zrotation Yrotation Xrotation
					JOINT LeftToeBase
					{
						OFFSET 0.157640 -0.433110 2.322550
						CHANNELS 3 Zrotation Yrotation Xrotation
						End Site
						{
							OFFSET 0.000000 0.000000 0.000000
						}
					}
				}
			}
		}
	}
	JOINT RHipJoint
	{
		OFFSET 0.000000 0.000000 0.000000
		CHANNELS 3 Zrotation Yrotation Xrotation
		JOINT RightUpLeg
		{
			OFFSET -1.305520 -1.794630 0.839290
			CHANNELS 3 Zrotation Yrotation Xrotation
			JOINT RightLeg
			{
				OFFSET -2.542530 -6.985550 0.000000
				CHANNELS 3 Zrotation Yrotation Xrotation
				JOINT RightFoot
				{
					OFFSET -2.568260 -7.056230 0.000000
					CHANNELS 3 Zrotation Yrotation Xrotation
					JOINT RightToeBase
					{
						OFFSET -0.164730 -0.452590 2.363150
						CHANNELS 3 Zrotation Yrotation Xrotation
						End Site
						{
							OFFSET 0.000000 0.000000 0.000000
						}
					}
				}
			}
		}
	}
	JOINT LowerBack
	{
		OFFSET 0.000000 0.000000 0.000000
		CHANNELS 3 Zrotation Yrotation Xrotation
		JOINT Spine
		{
			OFFSET 0.028270 2.035590 -0.193380
			CHANNELS 3 Zrotation Yrotation Xrotation
			JOINT Spine1
			{
				OFFSET 0.056720 2.048850 -0.042750
				CHANNELS 3 Zrotation Yrotation Xrotation
				JOINT Neck
				{
					OFFSET 0.000000 0.000000 0.000000
					CHANNELS 3 Zrotation Yrotation Xrotation
					JOINT Neck1
					{
						OFFSET -0.054170 1.746240 0.172020
						CHANNELS 3 Zrotation Yrotation Xrotation
						JOINT Head
						{
							OFFSET 0.104070 1.761360 -0.123970
							CHANNELS 3 Zrotation Yrotation Xrotation
							End Site
							{
								OFFSET 0.000000 0.000000 0.000000
							}
						}
					}
				}
				JOINT LeftShoulder
				{
					OFFSET 0.000000 0.000000 0.000000
					CHANNELS 3 Zrotation Yrotation Xrotation
					JOINT LeftArm
					{
						OFFSET 3.362410 1.200890 -0.311210
						CHANNELS 3 Zrotation Yrotation Xrotation
						JOINT LeftForeArm
						{
							OFFSET 4.983000 -0.000000 -0.000000
							CHANNELS 3 Zrotation Yrotation Xrotation
							JOINT LeftHand
							{
								OFFSET 3.483560 -0.000000 -0.000000
								CHANNELS 3 Zrotation Yrotation Xrotation
								JOINT LeftFingerBase
								{
									OFFSET 0.000000 0.000000 0.000000
									CHANNELS 3 Zrotation Yrotation Xrotation
									JOINT LeftHandIndex1
									{
										OFFSET 0.715260 -0.000000 -0.000000
										CHANNELS 3 Zrotation Yrotation Xrotation
										End Site
										{
											OFFSET 0.000000 0.000000 0.000000
										}
									}
								}
								JOINT LThumb
								{
									OFFSET 0.000000 0.000000 0.000000
									CHANNELS 3 Zrotation Yrotation Xrotation
									End Site
									{
										OFFSET 0.000000 0.000000 0.000000
									}
								}
							}
						}
					}
				}
				JOINT RightShoulder
				{
					OFFSET 0.000000 0.000000 0.000000
					CHANNELS 3 Zrotation Yrotation Xrotation
					JOINT RightArm
					{
						OFFSET -3.136600 1.374050 -0.404650
						CHANNELS 3 Zrotation Yrotation Xrotation
						JOINT RightForeArm
						{
							OFFSET -5.241900 -0.000000 -0.000000
							CHANNELS 3 Zrotation Yrotation Xrotation
							JOINT RightHand
							{
								OFFSET -3.444170 -0.000000 -0.000000
								CHANNELS 3 Zrotation Yrotation Xrotation
								JOINT RightFingerBase
								{
									OFFSET 0.000000 0.000000 0.000000
									CHANNELS 3 Zrotation Yrotation Xrotation
									JOINT RightHandIndex1
									{
										OFFSET -0.622530 -0.000000 -0.000000
										CHANNELS 3 Zrotation Yrotation Xrotation
										End Site
										{
											OFFSET 0.000000 0.000000 0.000000
										}
									}
								}
								JOINT RThumb
								{
									OFFSET 0.000000 0.000000 0.000000
									CHANNELS 3 Zrotation Yrotation Xrotation
									End Site
									{
										OFFSET 0.000000 0.000000 0.000000
									}
								}
							}
						}
					}
				}
			}
		}
	}
}
MOTION
Frames: 9
Frame Time: 0.008333
1.481338 17.566082 -35.184084 6.760636 7.193073 3.918553 -1.799576 2.559769 4.233075 -24.846933 -1.533761 11.769285 -0.885587 4.367088 16.588677 2.792002 -8.949877 9.835397 0.247900 -3.203800 -8.846700 0.376995 -0.737051 -0.653729 9.579657 8.324233 -31.231401 0.885449 -5.920132 14.359905 1.417629 -9.847868 12.175645 -0.355700 3.831900 -10.604200 -6.970889 -2.591766 5.908711 0.574189 -3.940531 -2.269177 6.090709 -2.078410 -2.913253 -8.001341 -2.311363 -11.378479 2.918151 -1.893489 11.936561 2.616300 -1.448300 9.165400 -7.363147 2.511462 -2.634109 -75.590835 -8.917735 27.353078 16.153330 -28.449794 -5.986182 -1.283265 -3.759062 -0.002632 17.440399 21.015561 8.104000 -7.125000 0.000000 0.000000 -11.593900 55.582500 -3.040700 6.327200 -2.829201 -2.611088 84.432398 -15.949684 -0.884538 -8.451469 14.127848 -1.508377 1.110844 -1.495745 19.850626 -14.045659 12.951883 -3.841800 7.125000 0.000000 0.000000 8.085400 -15.644500 5.662900 
1.477904 17.587516 -34.898263 6.990834 7.315893 3.384658 -1.901133 2.670174 4.569117 -24.814655 -1.927943 12.499260 -0.831921 4.518866 17.161860 2.743766 -8.900702 11.928642 0.447400 -4.291600 -11.898400 0.214438 -0.874215 -0.401039 9.372416 8.908248 -31.111059 0.650752 -6.548607 16.206237 1.179820 -9.614888 14.189599 -0.262400 3.295200 -9.101700 -8.150434 -5.075048 6.188510 1.508145 -7.700607 -3.697164 9.854389 -3.099445 -8.786006 -11.912099 1.009093 0.469565 3.003275 2.153281 10.909625 3.558300 0.228100 5.546800 -7.106070 3.503652 -2.911666 -78.150406 1.908831 20.700643 16.918759 -30.004292 -6.670869 -1.426034 -3.694999 0.693951 18.888630 20.379981 8.595800 -7.125000 0.000000 0.000000 -9.684200 55.207300 -2.443800 5.990369 -3.182472 -2.831749 77.681652 -24.492377 8.185250 -7.951557 14.436843 -1.484597 1.219220 -1.401383 18.127681 -13.376803 13.324835 -3.755300 7.125000 0.000000 0.000000 8.515200 -15.399300 6.016100 
1.473638 17.611031 -34.608280 7.295254 7.580736 3.051927 -2.047472 2.648109 4.641716 -24.857371 -2.437768 12.502263 -0.618117 5.144602 18.987012 2.748627 -8.997394 13.908120 0.762400 -5.576100 -15.559200 0.026556 -0.972511 -0.349089 8.870627 9.944795 -30.497191 0.420082 -6.993250 17.445722 1.404895 -10.759829 15.355148 -0.269000 3.336500 -9.217000 -10.853007 -6.388397 7.631879 2.525573 -9.982744 -3.957642 15.081818 -3.825952 -8.654580 -13.887712 2.543096 -1.025932 2.134020 4.590701 11.252209 3.293000 1.229300 5.850100 -6.822564 3.535694 -2.935856 -81.742712 2.836437 15.138951 17.258116 -30.440759 -6.917605 -1.507410 -3.677971 1.306793 19.391371 20.806406 8.986600 -7.125000 0.000000 0.000000 -9.298600 55.746500 -2.467400 6.509603 -3.184443 -2.854966 71.799540 -23.229564 13.883557 -7.642129 14.021772 -1.396821 1.200615 -1.236848 16.816883 -12.517998 12.378072 -3.254200 7.125000 0.000000 0.000000 9.164800 -16.540500 6.257700 
1.467291 17.640061 -34.327349 6.815486 7.814202 2.837833 -1.949239 2.636221 4.576539 -24.336424 -3.061966 12.229204 -0.401152 5.785064 20.852847 2.768161 -8.956628 16.634801 0.980100 -6.301900 -17.663000 0.067094 -0.980166 -0.353781 9.135802 10.692404 -30.060569 0.216112 -7.457422 18.760283 1.424248 -11.098399 16.101371 -0.171500 2.667600 -7.354500 -9.616346 -5.895164 7.235950 2.222683 -9.060617 -3.737804 13.283001 -3.597759 -8.231024 -12.925309 1.928982 -1.279382 2.242424 3.696544 11.153918 3.233700 0.868000 5.927000 -6.916979 3.460697 -2.888160 -80.756987 1.686986 16.713160 17.098331 -30.157847 -6.741413 -1.534116 -3.873107 1.421412 19.732138 22.576453 9.822700 -7.125000 0.000000 0.000000 -9.831400 57.818600 -3.104600 6.446541 -3.187037 -2.803854 74.029728 -22.810351 10.288864 -7.507266 13.633744 -1.326474 1.176702 -1.212062 17.534285 -12.473424 11.850115 -3.103500 7.125000 0.000000 0.000000 9.214800 -17.112300 6.176400 
1.464274 17.658477 -34.056928 6.258082 7.370817 2.577814 -1.940165 2.593079 4.549671 -23.762506 -3.190294 11.439797 -0.096447 6.539929 23.084956 2.805652 -8.789947 19.759531 1.092600 -6.642700 -18.661100 0.053818 -0.983647 -0.290583 9.987763 10.909842 -29.816503 0.105077 -7.779411 19.879510 0.862558 -9.742185 17.816310 -0.156200 2.546900 -7.019700 -9.073732 -5.862563 7.428922 2.309967 -8.976770 -3.772501 13.387749 -3.524524 -8.499625 -13.053364 2.133945 -1.188423 2.232896 3.986882 11.248135 3.261300 0.987100 5.946400 -6.899093 3.470111 -2.900589 -81.153094 2.005798 15.673083 17.156969 -30.198543 -6.761570 -1.505785 -3.974901 1.759771 19.513935 23.677825 10.089100 -7.125000 0.000000 0.000000 -10.760200 58.980600 -3.703300 6.478561 -3.176395 -2.809209 73.716873 -22.960616 10.121828 -7.418558 13.503428 -1.298426 1.156101 -1.239486 17.903507 -12.377955 11.946887 -3.108900 7.125000 0.000000 0.000000 9.283400 -16.997700 6.247200 
1.465210 17.668362 -33.786402 5.741342 6.733870 2.280994 -1.996364 2.543107 4.544826 -23.184733 -3.108988 10.376635 0.274129 7.343520 25.458987 2.861209 -8.286954 23.444694 1.085900 -6.622800 -18.602700 0.008008 -1.007917 -0.195582 10.998312 11.037489 -29.480692 0.000923 -8.039840 20.867873 0.386201 -8.558384 19.357737 -0.122200 2.253500 -6.206700 -9.111859 -6.226543 7.905753 2.677378 -9.556511 -3.932880 14.879220 -3.621982 -9.006556 -14.081676 2.727687 -0.690175 2.012782 4.827469 11.295757 3.294700 1.315200 5.797400 -6.803603 3.564651 -2.930467 -82.598549 3.266844 12.975909 17.361485 -30.492873 -6.979242 -1.329960 -3.764573 1.780569 17.927232 21.809893 8.558500 -7.125000 0.000000 0.000000 -11.565700 56.518800 -3.296900 6.593103 -3.179088 -2.815412 71.505824 -23.230156 12.295862 -7.247968 13.350633 -1.246595 1.199677 -1.321114 18.274723 -12.747036 12.404098 -3.336800 7.125000 0.000000 0.000000 8.975000 -16.454100 6.141900 
1.464378 17.696143 -33.506928 4.975001 6.243678 1.979647 -1.981307 2.511662 4.490484 -22.272098 -2.894287 9.127452 0.694488 8.147201 27.798063 2.971274 -7.472501 27.388152 0.929500 -6.141800 -17.196400 0.031846 -1.031387 -0.124788 12.220420 11.324070 -28.941713 -0.131785 -8.300019 21.814260 0.220930 -8.080910 19.920589 -0.085000 1.880200 -5.174700 -7.985149 -6.088382 7.683400 2.668180 -9.208023 -3.916046 14.292331 -3.465829 -9.252428 -14.271217 2.656827 0.315131 2.014859 4.591311 11.109450 3.352400 1.212800 5.483300 -6.822398 3.642410 -2.932448 -82.600726 3.837882 12.711722 17.338470 -30.446552 -6.870325 -1.307002 -4.313297 0.760335 18.891930 26.635525 10.720400 -7.125000 0.000000 0.000000 -13.662200 62.045300 -5.721600 6.561074 -3.198344 -2.763405 71.648580 -23.524641 10.844466 -6.960894 12.930989 -1.141126 1.197732 -1.529718 20.057140 -13.255615 13.353617 -3.763900 7.125000 0.000000 0.000000 8.560700 -15.301900 6.067100 
1.457615 17.738282 -33.220482 4.260977 6.177264 1.642560 -1.954580 2.493302 4.434624 -21.267555 -2.901159 7.913837 1.164026 8.959542 30.148455 3.254227 -6.739728 32.079206 0.948600 -6.202800 -17.374000 0.048000 -1.069815 -0.041598 13.338717 11.546079 -28.303748 -0.295636 -8.582957 22.824247 0.173224 -7.800546 19.956146 -0.013400 0.747800 -2.055200 -6.875964 -6.121975 7.431603 2.652126 -9.100454 -3.920546 13.624018 -3.435713 -9.474198 -14.329859 2.860022 1.251780 2.188427 4.729438 10.987538 3.479300 1.303100 5.171500 -6.851326 3.726230 -2.929588 -82.487729 4.372142 12.112458 17.226937 -30.335895 -6.800569 -1.140554 -4.454659 -0.256001 18.223176 27.611712 10.616100 -7.125000 0.000000 0.000000 -15.355900 62.920200 -6.764900 6.500286 -3.211129 -2.735282 71.814662 -23.906785 10.357439 -6.856486 12.833549 -1.117680 1.185630 -1.537154 20.432111 -13.180660 13.324086 -3.736300 7.125000 0.000000 0.000000 8.612900 -15.337300 6.098300 
1.449707 17.782295 -32.936014 3.825132 6.560089 1.314209 -1.900197 2.464574 4.350687 -20.562242 -3.356599 6.863417 1.680888 9.756375 32.463023 3.618361 -6.204351 36.249660 0.736600 -5.483000 -15.291500 0.058629 -1.102771 0.043089 14.071975 11.531080 -27.793779 -0.479195 -8.877315 23.817580 0.203071 -7.784462 19.858235 -0.038500 -1.266100 3.481200 -5.985874 -6.332364 7.266571 2.594077 -9.269988 -3.955501 12.869046 -3.532375 -9.771819 -14.257100 3.186570 2.202086 2.463061 5.025836 10.836808 3.628800 1.484900 4.828600 -6.873709 3.818306 -2.941777 -82.271209 5.115354 11.580117 17.207386 -30.363283 -6.825282 -0.992747 -4.414815 -0.787138 17.290087 27.038897 9.850100 -7.125000 0.000000 0.000000 -16.047300 62.064500 -6.754000 6.389251 -3.216261 -2.727963 72.134314 -24.438142 10.605370 -6.941940 13.061492 -1.169324 1.184791 -1.400254 20.072275 -12.904006 12.544118 -3.426600 7.125000 0.000000 0.000000 8.839000 -16.269400 6.082400 
